<svg width="1280" height="720" viewBox="0 0 1280 720" fill="none" xmlns="http://www.w3.org/2000/svg">
<g filter="url(#filter0_b_19_528)">
<rect x="1114" y="39" width="119" height="96" rx="16" fill="url(#paint0_linear_19_528)" fill-opacity="0.5"/>
</g>
<g filter="url(#filter1_b_19_528)">
<rect x="475" y="39" width="172" height="97" rx="16" fill="url(#paint1_linear_19_528)" fill-opacity="0.5"/>
</g>
<g filter="url(#filter2_b_19_528)">
<rect x="666" y="39" width="242" height="96.1709" rx="16" fill="url(#paint2_linear_19_528)" fill-opacity="0.5"/>
</g>
<path fill-rule="evenodd" clip-rule="evenodd" d="M742 89C742 95.4762 737.759 100.925 732 102.525V98.2934C735.463 96.8435 738 93.3037 738 89C738 83.3392 733.611 79 728.499 79C727.054 79 725.668 79.3463 724.422 79.971C724.358 78.8073 724.187 77.6735 723.92 76.5798L723.914 76.5823C722.018 68.7001 715.168 63 707.217 63C697.844 63 690 70.9209 690 81C690 87.4583 693.22 93.0305 698 96.2005V100.821C690.899 97.2646 686 89.7255 686 81C686 68.8497 695.499 59 707.217 59C716.938 59 725.132 65.7795 727.642 75.0277C727.925 75.0093 728.211 75 728.499 75C735.955 75 742 81.268 742 89ZM702.002 99.8182C702.002 98.8615 702.307 97.8216 702.722 96.8489C703.609 94.7712 705 93 705 93C705 93 706.329 94.835 707.218 96.8504C707.665 97.8642 708.002 98.9237 708.002 99.8182C708.003 101.575 706.66 103 705.003 103C703.346 103 702.003 101.575 702.002 99.8182ZM712.722 96.8489C712.307 97.8216 712.002 98.8615 712.002 99.8182C712.003 101.575 713.346 103 715.003 103C716.66 103 718.003 101.575 718.002 99.8182C718.002 98.9237 717.665 97.8642 717.218 96.8504C716.329 94.835 715 93 715 93C715 93 713.609 94.7712 712.722 96.8489ZM707.751 109.818C707.751 108.862 708.056 107.822 708.471 106.849C709.358 104.771 710.749 103 710.749 103C710.749 103 712.078 104.835 712.967 106.85C713.414 107.864 713.751 108.924 713.751 109.818C713.752 111.575 712.409 113 710.752 113C709.095 113 707.752 111.575 707.751 109.818ZM722.722 96.8489C722.307 97.8216 722.002 98.8615 722.002 99.8182C722.003 101.575 723.346 103 725.003 103C726.66 103 728.003 101.575 728.002 99.8182C728.002 98.9237 727.665 97.8642 727.218 96.8504C726.329 94.835 725 93 725 93C725 93 723.609 94.7712 722.722 96.8489ZM717.781 109.818C717.781 108.862 718.085 107.822 718.501 106.849C719.388 104.771 720.779 103 720.779 103C720.779 103 722.107 104.835 722.997 106.85C723.444 107.864 723.781 108.924 723.781 109.818C723.781 111.575 722.439 113 720.782 113C719.125 113 717.781 111.575 717.781 109.818Z" fill="white"/>
<path d="M786 93.4657C787.333 93.4657 788.479 93.5386 789.438 93.6844C790.406 93.8199 791.224 94.0386 791.891 94.3407C792.557 94.6324 793.094 95.0074 793.5 95.4657C793.906 95.924 794.219 96.4709 794.438 97.1063C794.667 97.7313 794.818 98.4501 794.891 99.2626C794.964 100.065 795 100.966 795 101.966C795 103.268 794.885 104.388 794.656 105.325C794.438 106.252 794.094 107.033 793.625 107.669C793.167 108.294 792.583 108.794 791.875 109.169C791.167 109.533 790.328 109.809 789.359 109.997C788.401 110.195 787.307 110.32 786.078 110.372C784.859 110.434 783.5 110.466 782 110.466C780.5 110.466 779.109 110.455 777.828 110.434C776.557 110.414 775.401 110.33 774.359 110.184C773.328 110.039 772.417 109.809 771.625 109.497C770.833 109.174 770.167 108.716 769.625 108.122C769.094 107.528 768.688 106.773 768.406 105.856C768.135 104.94 768 103.809 768 102.466H771C771 103.257 771.016 103.945 771.047 104.528C771.089 105.101 771.208 105.591 771.406 105.997C771.615 106.403 771.938 106.737 772.375 106.997C772.812 107.247 773.438 107.445 774.25 107.591C775.073 107.737 776.109 107.835 777.359 107.888C778.62 107.94 780.167 107.966 782 107.966C783.333 107.966 784.505 107.955 785.516 107.934C786.526 107.914 787.401 107.846 788.141 107.731C788.891 107.617 789.51 107.44 790 107.2C790.49 106.95 790.88 106.601 791.172 106.153C791.474 105.705 791.688 105.143 791.812 104.466C791.938 103.778 792 102.94 792 101.95C792 100.617 791.922 99.5542 791.766 98.7626C791.609 97.9709 791.312 97.3719 790.875 96.9657C790.438 96.549 789.828 96.2782 789.047 96.1532C788.266 96.0282 787.25 95.9657 786 95.9657H778C776.625 95.9657 775.51 96.0282 774.656 96.1532C773.802 96.2678 773.125 96.4344 772.625 96.6532C772.125 96.8719 771.76 97.1376 771.531 97.4501C771.302 97.7522 771.125 98.0907 771 98.4657H768V85.9657H794V88.4657H771V95.9657C771.01 95.9449 771.052 95.8719 771.125 95.7469C771.208 95.6115 771.344 95.4501 771.531 95.2626C771.729 95.0751 771.99 94.8772 772.312 94.6688C772.646 94.4605 773.068 94.2678 773.578 94.0907C774.099 93.9136 774.719 93.7678 775.438 93.6532C776.167 93.5282 777.021 93.4657 778 93.4657H786ZM813 107.966C814.615 107.966 815.979 107.94 817.094 107.888C818.219 107.835 819.151 107.716 819.891 107.528C820.63 107.33 821.208 107.039 821.625 106.653C822.042 106.268 822.349 105.742 822.547 105.075C822.755 104.408 822.88 103.58 822.922 102.591C822.974 101.591 823 100.382 823 98.9657C822.188 99.4553 821.135 99.8303 819.844 100.091C818.552 100.341 816.938 100.466 815 100.466H809.984C807.734 100.466 805.896 100.309 804.469 99.9969C803.042 99.6844 801.922 99.2157 801.109 98.5907C800.307 97.9657 799.755 97.1844 799.453 96.2469C799.151 95.3094 799 94.2157 799 92.9657C799 91.7157 799.151 90.6219 799.453 89.6844C799.755 88.7469 800.307 87.9657 801.109 87.3407C801.922 86.7157 803.042 86.2469 804.469 85.9344C805.896 85.6219 807.734 85.4657 809.984 85.4657H815C816.833 85.4657 818.375 85.5803 819.625 85.8094C820.885 86.0282 821.922 86.3667 822.734 86.8251C823.557 87.273 824.188 87.8407 824.625 88.5282C825.062 89.2157 825.38 90.023 825.578 90.9501C825.786 91.8772 825.906 92.924 825.938 94.0907C825.979 95.2574 826 96.549 826 97.9657C826 99.4657 825.979 100.82 825.938 102.028C825.896 103.226 825.755 104.289 825.516 105.216C825.276 106.132 824.896 106.924 824.375 107.591C823.854 108.257 823.109 108.804 822.141 109.231C821.182 109.648 819.958 109.955 818.469 110.153C816.99 110.362 815.167 110.466 813 110.466C811.167 110.466 809.573 110.398 808.219 110.263C806.865 110.127 805.703 109.924 804.734 109.653C803.776 109.382 802.99 109.049 802.375 108.653C801.76 108.257 801.276 107.799 800.922 107.278C800.578 106.757 800.339 106.179 800.203 105.544C800.078 104.908 800.016 104.216 800.016 103.466H802.5C802.5 103.882 802.531 104.283 802.594 104.669C802.656 105.054 802.792 105.414 803 105.747C803.219 106.08 803.552 106.382 804 106.653C804.448 106.924 805.057 107.158 805.828 107.356C806.609 107.554 807.583 107.705 808.75 107.809C809.917 107.914 811.333 107.966 813 107.966ZM815 97.9657C816.635 97.9657 817.974 97.9292 819.016 97.8563C820.057 97.7834 820.87 97.6115 821.453 97.3407C822.047 97.0699 822.453 96.6688 822.672 96.1376C822.891 95.6063 823 94.8824 823 93.9657C823 92.7157 822.891 91.7001 822.672 90.9188C822.453 90.1376 822.047 89.5282 821.453 89.0907C820.87 88.6532 820.057 88.3563 819.016 88.2001C817.974 88.0438 816.635 87.9657 815 87.9657H809.984C808.818 87.9657 807.807 87.9969 806.953 88.0594C806.109 88.1219 805.391 88.2261 804.797 88.3719C804.214 88.5178 803.734 88.7157 803.359 88.9657C802.995 89.2157 802.708 89.5282 802.5 89.9032C802.302 90.2678 802.167 90.7053 802.094 91.2157C802.031 91.7157 802 92.299 802 92.9657C802 93.6324 802.036 94.2209 802.109 94.7313C802.182 95.2313 802.318 95.6688 802.516 96.0438C802.724 96.4084 803.01 96.7157 803.375 96.9657C803.74 97.2157 804.219 97.4136 804.812 97.5594C805.406 97.7053 806.125 97.8094 806.969 97.8719C807.812 97.9344 808.818 97.9657 809.984 97.9657H815ZM845 109.966V85.9657H868V88.4657H848V96.4657H867V98.9657H848V109.966H845Z" fill="white"/>
<path d="M778.436 72.7264H777.217V70.8983C777.217 70.6021 777.211 70.3482 777.198 70.1366C777.19 69.9208 777.154 69.7367 777.09 69.5844C777.031 69.432 776.936 69.3093 776.805 69.2162C776.674 69.1231 776.487 69.0511 776.246 69.0004C776.005 68.9496 775.698 68.9157 775.326 68.8988C774.958 68.8776 774.503 68.8671 773.961 68.8671H768.483V72.7264H767.264V62.9764H774.164C774.909 62.9764 775.535 63.0039 776.043 63.059C776.555 63.1097 776.976 63.188 777.306 63.2938C777.64 63.3996 777.896 63.5308 778.074 63.6874C778.256 63.844 778.387 64.028 778.468 64.2396C778.552 64.4512 778.601 64.6882 778.614 64.9506C778.631 65.2129 778.639 65.5028 778.639 65.8202C778.639 66.2264 778.61 66.584 778.55 66.8929C778.495 67.1976 778.4 67.4579 778.265 67.6737C778.129 67.8895 777.949 68.063 777.725 68.1942C777.501 68.3212 777.219 68.41 776.881 68.4608C777.219 68.5116 777.49 68.6005 777.693 68.7274C777.896 68.8544 778.053 69.0194 778.163 69.2225C778.273 69.4257 778.345 69.6669 778.379 69.9462C778.417 70.2255 778.436 70.5428 778.436 70.8983V72.7264ZM768.483 67.8514H774.164C774.706 67.8514 775.161 67.843 775.529 67.826C775.901 67.8049 776.208 67.7689 776.449 67.7181C776.69 67.6674 776.877 67.5954 777.008 67.5023C777.139 67.4092 777.234 67.2865 777.293 67.1342C777.357 66.9818 777.393 66.7998 777.401 66.5883C777.414 66.3724 777.42 66.1164 777.42 65.8202C777.42 65.5451 777.414 65.3081 777.401 65.1093C777.393 64.9104 777.357 64.7432 777.293 64.6078C777.234 64.4724 777.139 64.3645 777.008 64.2841C776.877 64.2037 776.69 64.1423 776.449 64.1C776.208 64.0534 775.901 64.0238 775.529 64.0111C775.161 63.9984 774.706 63.9921 774.164 63.9921H768.483V67.8514ZM787.545 71.7235C787.532 71.7743 787.437 71.9012 787.259 72.1044C787.132 72.2567 786.963 72.3921 786.751 72.5106C786.54 72.6249 786.256 72.7137 785.901 72.7772C785.55 72.8449 785.086 72.8788 784.511 72.8788C783.745 72.8788 783.091 72.8386 782.549 72.7582C782.008 72.682 781.565 72.5635 781.223 72.4027C780.88 72.2377 780.628 72.0282 780.467 71.7743C780.311 71.5204 780.232 71.2178 780.232 70.8666C780.232 70.4984 780.275 70.1874 780.359 69.9335C780.448 69.6753 780.575 69.4595 780.74 69.286C780.91 69.1125 781.113 68.9771 781.35 68.8798C781.587 68.7824 781.855 68.7084 782.156 68.6576C782.46 68.6068 782.793 68.5751 783.152 68.5624C783.512 68.5497 783.895 68.5433 784.301 68.5433C784.881 68.5433 785.366 68.5687 785.755 68.6195C786.144 68.6661 786.462 68.7274 786.707 68.8036C786.957 68.8755 787.145 68.9538 787.272 69.0385C787.399 69.1231 787.49 69.2014 787.545 69.2733C787.545 68.7994 787.524 68.3952 787.481 68.0609C787.443 67.7266 787.378 67.4473 787.285 67.223C787.196 66.9987 787.079 66.821 786.936 66.6898C786.792 66.5544 786.614 66.4528 786.402 66.3851C786.195 66.3174 785.952 66.2751 785.672 66.2582C785.393 66.237 785.074 66.2264 784.714 66.2264C784.155 66.2264 783.692 66.2413 783.324 66.2709C782.956 66.2963 782.664 66.3492 782.448 66.4296C782.232 66.51 782.08 66.6221 781.991 66.766C781.902 66.9056 781.857 67.0897 781.857 67.3182H780.639C780.639 66.9331 780.706 66.6073 780.842 66.3407C780.981 66.0741 781.21 65.8583 781.527 65.6932C781.849 65.524 782.27 65.4012 782.791 65.3251C783.311 65.2489 783.952 65.2108 784.714 65.2108C785.459 65.2108 786.089 65.2722 786.605 65.3949C787.122 65.5176 787.539 65.7334 787.856 66.0424C788.178 66.3513 788.408 66.7681 788.548 67.2928C788.692 67.8134 788.764 68.4735 788.764 69.2733V72.7264H787.545V71.7235ZM784.714 71.9139C785.251 71.9139 785.7 71.8885 786.06 71.8378C786.424 71.787 786.715 71.7108 786.936 71.6093C787.156 71.5077 787.312 71.3807 787.405 71.2284C787.498 71.076 787.545 70.8983 787.545 70.6952C787.545 70.4921 787.49 70.3207 787.38 70.181C787.274 70.0372 787.094 69.9208 786.84 69.8319C786.591 69.743 786.258 69.6796 785.844 69.6415C785.429 69.5992 784.917 69.578 784.308 69.578C783.698 69.578 783.205 69.5886 782.829 69.6097C782.456 69.6309 782.168 69.6796 781.965 69.7557C781.762 69.8319 781.625 69.9441 781.553 70.0922C781.485 70.2403 781.451 70.4413 781.451 70.6952C781.451 70.9491 781.487 71.1565 781.559 71.3173C781.635 71.4738 781.788 71.5966 782.016 71.6854C782.245 71.7743 782.573 71.8357 783 71.8695C783.432 71.8991 784.003 71.9139 784.714 71.9139ZM790.801 65.4139H792.02V72.7264H790.801V65.4139ZM792.02 64.1952H790.801V62.9764H792.02V64.1952ZM801.364 72.7264V68.6639C801.364 68.2111 801.33 67.8303 801.262 67.5214C801.194 67.2082 801.059 66.9564 800.856 66.766C800.653 66.5756 800.365 66.438 799.993 66.3534C799.62 66.2688 799.129 66.2264 798.52 66.2264C797.86 66.2264 797.318 66.2751 796.895 66.3724C796.476 66.4698 796.146 66.6073 795.905 66.785C795.664 66.9628 795.496 67.1765 795.403 67.4261C795.314 67.6758 795.27 67.953 795.27 68.2577V72.7264H794.051V65.4139H795.27V66.6327C795.359 66.4253 795.486 66.2476 795.651 66.0995C795.816 65.9471 796.002 65.8181 796.209 65.7123C796.417 65.6065 796.641 65.5219 796.882 65.4584C797.124 65.3907 797.365 65.3399 797.606 65.306C797.847 65.2679 798.08 65.2426 798.304 65.2299C798.533 65.2172 798.74 65.2108 798.926 65.2108C799.468 65.2108 799.933 65.2447 800.323 65.3124C800.716 65.3801 801.049 65.4795 801.319 65.6107C801.594 65.7419 801.814 65.9048 801.979 66.0995C802.145 66.2941 802.271 66.5205 802.36 66.7787C802.453 67.0326 802.515 67.3182 802.544 67.6356C802.574 67.9488 802.589 68.2915 802.589 68.6639L802.583 72.7264H801.364ZM807.267 72.7264L803.408 65.4139H804.83L808.08 71.9139L811.126 65.4139H812.548L808.892 72.7264L808.689 73.1327C808.587 73.3358 808.486 73.5262 808.384 73.704C808.287 73.8859 808.175 74.051 808.048 74.1991C807.921 74.3514 807.771 74.4869 807.597 74.6053C807.424 74.7238 807.21 74.8233 806.956 74.9037C806.706 74.9883 806.408 75.0518 806.061 75.0941C805.714 75.1407 805.304 75.1639 804.83 75.1639V74.1483C805.236 74.1483 805.579 74.1314 805.858 74.0975C806.137 74.0679 806.37 74.0214 806.556 73.9579C806.747 73.8986 806.899 73.8267 807.013 73.7421C807.127 73.6574 807.223 73.5622 807.299 73.4564C807.375 73.3506 807.438 73.2364 807.489 73.1136C807.544 72.9909 807.606 72.8619 807.673 72.7264H807.267Z" fill="white"/>
<g filter="url(#filter3_b_19_528)">
<rect x="36" y="39" width="304" height="164" rx="16" fill="url(#paint3_linear_19_528)" fill-opacity="0.5"/>
</g>
<path d="M80.723 166.272V156.122C80.723 155.69 80.2415 155.432 79.882 155.672L74.802 159.058C74.4425 159.298 73.9609 159.04 73.9609 158.608V156.108C73.9609 155.678 73.485 155.42 73.1251 155.654L65.617 160.534C65.2955 160.743 65.2875 161.211 65.6016 161.431L73.1097 166.687C73.4683 166.938 73.9609 166.681 73.9609 166.244V163.785C73.9609 163.353 74.4425 163.096 74.802 163.335L79.882 166.722C80.2415 166.962 80.723 166.704 80.723 166.272Z" fill="white"/>
<path d="M127.206 155.782C126.886 155.631 126.529 155.572 126.178 155.614C125.826 155.655 125.493 155.794 125.217 156.016L120.627 159.805L120.501 159.94V156.502C120.501 156.263 120.406 156.034 120.237 155.865C120.068 155.697 119.839 155.602 119.601 155.602C119.362 155.602 119.133 155.697 118.964 155.865C118.796 156.034 118.701 156.263 118.701 156.502V165.502C118.701 165.74 118.796 165.969 118.964 166.138C119.133 166.307 119.362 166.402 119.601 166.402C119.839 166.402 120.068 166.307 120.237 166.138C120.406 165.969 120.501 165.74 120.501 165.502V162.064L120.627 162.199L125.217 165.988C125.548 166.256 125.961 166.402 126.387 166.402C126.669 166.4 126.949 166.339 127.206 166.222C127.484 166.099 127.721 165.899 127.889 165.645C128.056 165.391 128.147 165.095 128.151 164.791V157.213C128.147 156.909 128.056 156.612 127.889 156.358C127.721 156.105 127.484 155.904 127.206 155.782Z" fill="white"/>
<g clip-path="url(#clip0_19_528)">
<path d="M181.886 156.724V164.844C181.886 165.218 182.231 165.521 182.656 165.521H183.425C183.85 165.521 184.195 165.218 184.195 164.844V156.724C184.195 156.35 183.85 156.047 183.425 156.047H182.656C182.231 156.047 181.886 156.35 181.886 156.724ZM177.267 156.724V164.844C177.267 165.218 177.612 165.521 178.037 165.521H178.807C179.232 165.521 179.577 165.218 179.577 164.844V156.724C179.577 156.35 179.232 156.047 178.807 156.047H178.037C177.612 156.047 177.267 156.35 177.267 156.724Z" fill="white"/>
</g>
<circle cx="180.8" cy="161" r="17.0551" stroke="#87888C" stroke-opacity="0.3" stroke-width="1.8897"/>
<path d="M234.394 155.782C234.714 155.631 235.07 155.572 235.422 155.614C235.773 155.655 236.106 155.794 236.383 156.016L240.973 159.805L241.099 159.94V156.502C241.099 156.263 241.193 156.034 241.362 155.865C241.531 155.697 241.76 155.602 241.999 155.602C242.237 155.602 242.466 155.697 242.635 155.865C242.804 156.034 242.899 156.263 242.899 156.502V165.502C242.899 165.74 242.804 165.969 242.635 166.138C242.466 166.307 242.237 166.402 241.999 166.402C241.76 166.402 241.531 166.307 241.362 166.138C241.193 165.969 241.099 165.74 241.099 165.502V162.064L240.973 162.199L236.383 165.988C236.052 166.256 235.639 166.402 235.213 166.402C234.93 166.4 234.651 166.339 234.394 166.222C234.115 166.099 233.878 165.899 233.711 165.645C233.543 165.391 233.452 165.095 233.449 164.791V157.213C233.452 156.909 233.543 156.612 233.711 156.358C233.878 156.105 234.115 155.904 234.394 155.782Z" fill="white"/>
<path d="M281.109 166.496V155.939C281.109 155.49 281.61 155.222 281.984 155.471L287.267 158.993C287.641 159.243 288.142 158.975 288.142 158.525V155.925C288.142 155.478 288.637 155.21 289.011 155.453L296.82 160.529C297.154 160.746 297.162 161.233 296.836 161.461L289.027 166.927C288.654 167.188 288.142 166.921 288.142 166.466V163.91C288.142 163.46 287.641 163.192 287.267 163.442L281.984 166.964C281.61 167.213 281.109 166.945 281.109 166.496Z" fill="white"/>
<g filter="url(#filter4_b_19_528)">
<g filter="url(#filter5_b_19_528)">
<circle cx="1201.82" cy="202.816" r="30.8163" fill="url(#paint4_linear_19_528)" fill-opacity="0.5"/>
</g>
<path d="M1199.12 211.265V208.321C1199.12 207.569 1199.74 206.96 1200.51 206.96H1203.31C1203.67 206.96 1204.03 207.103 1204.29 207.358C1204.55 207.613 1204.69 207.96 1204.69 208.321V211.265C1204.69 211.578 1204.81 211.878 1205.04 212.1C1205.26 212.322 1205.57 212.446 1205.89 212.446H1207.79C1208.69 212.449 1209.54 212.103 1210.17 211.484C1210.8 210.866 1211.16 210.026 1211.16 209.151V200.762C1211.16 200.055 1210.84 199.384 1210.29 198.93L1203.79 193.837C1202.67 192.944 1201.05 192.973 1199.95 193.906L1193.61 198.93C1193.03 199.371 1192.68 200.044 1192.67 200.762V209.142C1192.67 210.967 1194.17 212.446 1196.03 212.446H1197.9C1198.56 212.446 1199.09 211.923 1199.1 211.274L1199.12 211.265Z" fill="white"/>
</g>
<g filter="url(#filter6_b_19_528)">
<circle cx="1201.82" cy="282.939" r="30.8163" fill="url(#paint5_linear_19_528)" fill-opacity="0.5"/>
</g>
<path fill-rule="evenodd" clip-rule="evenodd" d="M1201.37 283.394C1205.21 287.234 1206.08 282.791 1208.52 285.235C1210.88 287.593 1212.24 288.065 1209.25 291.052C1208.88 291.353 1206.5 294.971 1198.14 286.617C1189.78 278.262 1193.4 275.882 1193.7 275.508C1196.7 272.513 1197.16 273.876 1199.52 276.234C1201.96 278.679 1197.52 279.553 1201.37 283.394Z" fill="white"/>
<g filter="url(#filter7_b_19_528)">
<circle cx="1201.82" cy="363.061" r="30.8163" fill="url(#paint6_linear_19_528)" fill-opacity="0.5"/>
</g>
<path d="M1202.51 353.431C1203.24 353.431 1203.89 353.836 1204.26 354.433C1204.44 354.722 1204.55 355.078 1204.52 355.453C1204.5 355.742 1204.59 356.031 1204.75 356.301C1205.25 357.119 1206.36 357.428 1207.23 356.965C1208.21 356.407 1209.44 356.744 1210 357.697L1210.66 358.834C1211.23 359.787 1210.91 361.01 1209.93 361.559C1209.09 362.05 1208.8 363.138 1209.3 363.966C1209.46 364.226 1209.63 364.448 1209.91 364.583C1210.25 364.766 1210.52 365.055 1210.71 365.344C1211.07 365.941 1211.04 366.673 1210.69 367.318L1210 368.473C1209.63 369.09 1208.95 369.475 1208.25 369.475C1207.91 369.475 1207.53 369.379 1207.21 369.186C1206.96 369.022 1206.66 368.965 1206.35 368.965C1205.37 368.965 1204.55 369.764 1204.52 370.717C1204.52 371.825 1203.62 372.691 1202.49 372.691H1201.15C1200.01 372.691 1199.1 371.825 1199.1 370.717C1199.08 369.764 1198.27 368.965 1197.29 368.965C1196.97 368.965 1196.67 369.022 1196.42 369.186C1196.11 369.379 1195.72 369.475 1195.38 369.475C1194.67 369.475 1193.99 369.09 1193.63 368.473L1192.95 367.318C1192.59 366.692 1192.57 365.941 1192.93 365.344C1193.09 365.055 1193.38 364.766 1193.72 364.583C1193.99 364.448 1194.17 364.226 1194.34 363.966C1194.83 363.138 1194.54 362.05 1193.7 361.559C1192.72 361.01 1192.41 359.787 1192.97 358.834L1193.63 357.697C1194.2 356.744 1195.42 356.407 1196.41 356.965C1197.26 357.428 1198.37 357.119 1198.88 356.301C1199.03 356.031 1199.12 355.742 1199.1 355.453C1199.08 355.078 1199.19 354.722 1199.38 354.433C1199.74 353.836 1200.4 353.45 1201.12 353.431H1202.51ZM1201.83 360.346C1200.28 360.346 1199.03 361.559 1199.03 363.071C1199.03 364.583 1200.28 365.787 1201.83 365.787C1203.37 365.787 1204.59 364.583 1204.59 363.071C1204.59 361.559 1203.37 360.346 1201.83 360.346Z" fill="white"/>
<g filter="url(#filter8_b_19_528)">
<circle cx="1201.82" cy="443.184" r="30.8163" fill="url(#paint7_linear_19_528)" fill-opacity="0.5"/>
</g>
<rect opacity="0.4" x="1187.56" y="436.635" width="25.3045" height="12.3265" rx="2.69643" stroke="white" stroke-width="0.770408"/>
<path opacity="0.5" d="M1214.3 440.784V444.813C1215.14 444.472 1215.68 443.678 1215.68 442.798C1215.68 441.919 1215.14 441.125 1214.3 440.784" fill="white"/>
<rect x="1189.26" y="438.265" width="17.7309" height="9.06711" rx="1.54082" fill="white"/>
<defs>
<filter id="filter0_b_19_528" x="1099" y="24" width="149" height="126" filterUnits="userSpaceOnUse" color-interpolation-filters="sRGB">
<feFlood flood-opacity="0" result="BackgroundImageFix"/>
<feGaussianBlur in="BackgroundImageFix" stdDeviation="7.5"/>
<feComposite in2="SourceAlpha" operator="in" result="effect1_backgroundBlur_19_528"/>
<feBlend mode="normal" in="SourceGraphic" in2="effect1_backgroundBlur_19_528" result="shape"/>
</filter>
<filter id="filter1_b_19_528" x="460" y="24" width="202" height="127" filterUnits="userSpaceOnUse" color-interpolation-filters="sRGB">
<feFlood flood-opacity="0" result="BackgroundImageFix"/>
<feGaussianBlur in="BackgroundImageFix" stdDeviation="7.5"/>
<feComposite in2="SourceAlpha" operator="in" result="effect1_backgroundBlur_19_528"/>
<feBlend mode="normal" in="SourceGraphic" in2="effect1_backgroundBlur_19_528" result="shape"/>
</filter>
<filter id="filter2_b_19_528" x="651" y="24" width="272" height="126.171" filterUnits="userSpaceOnUse" color-interpolation-filters="sRGB">
<feFlood flood-opacity="0" result="BackgroundImageFix"/>
<feGaussianBlur in="BackgroundImageFix" stdDeviation="7.5"/>
<feComposite in2="SourceAlpha" operator="in" result="effect1_backgroundBlur_19_528"/>
<feBlend mode="normal" in="SourceGraphic" in2="effect1_backgroundBlur_19_528" result="shape"/>
</filter>
<filter id="filter3_b_19_528" x="21" y="24" width="334" height="194" filterUnits="userSpaceOnUse" color-interpolation-filters="sRGB">
<feFlood flood-opacity="0" result="BackgroundImageFix"/>
<feGaussianBlur in="BackgroundImageFix" stdDeviation="7.5"/>
<feComposite in2="SourceAlpha" operator="in" result="effect1_backgroundBlur_19_528"/>
<feBlend mode="normal" in="SourceGraphic" in2="effect1_backgroundBlur_19_528" result="shape"/>
</filter>
<filter id="filter4_b_19_528" x="1159.44" y="160.444" width="84.7449" height="84.7449" filterUnits="userSpaceOnUse" color-interpolation-filters="sRGB">
<feFlood flood-opacity="0" result="BackgroundImageFix"/>
<feGaussianBlur in="BackgroundImageFix" stdDeviation="5.77806"/>
<feComposite in2="SourceAlpha" operator="in" result="effect1_backgroundBlur_19_528"/>
<feBlend mode="normal" in="SourceGraphic" in2="effect1_backgroundBlur_19_528" result="shape"/>
</filter>
<filter id="filter5_b_19_528" x="1159.44" y="160.444" width="84.7449" height="84.7449" filterUnits="userSpaceOnUse" color-interpolation-filters="sRGB">
<feFlood flood-opacity="0" result="BackgroundImageFix"/>
<feGaussianBlur in="BackgroundImageFix" stdDeviation="5.77806"/>
<feComposite in2="SourceAlpha" operator="in" result="effect1_backgroundBlur_19_528"/>
<feBlend mode="normal" in="SourceGraphic" in2="effect1_backgroundBlur_19_528" result="shape"/>
</filter>
<filter id="filter6_b_19_528" x="1159.44" y="240.566" width="84.7449" height="84.7449" filterUnits="userSpaceOnUse" color-interpolation-filters="sRGB">
<feFlood flood-opacity="0" result="BackgroundImageFix"/>
<feGaussianBlur in="BackgroundImageFix" stdDeviation="5.77806"/>
<feComposite in2="SourceAlpha" operator="in" result="effect1_backgroundBlur_19_528"/>
<feBlend mode="normal" in="SourceGraphic" in2="effect1_backgroundBlur_19_528" result="shape"/>
</filter>
<filter id="filter7_b_19_528" x="1159.44" y="320.689" width="84.7449" height="84.7449" filterUnits="userSpaceOnUse" color-interpolation-filters="sRGB">
<feFlood flood-opacity="0" result="BackgroundImageFix"/>
<feGaussianBlur in="BackgroundImageFix" stdDeviation="5.77806"/>
<feComposite in2="SourceAlpha" operator="in" result="effect1_backgroundBlur_19_528"/>
<feBlend mode="normal" in="SourceGraphic" in2="effect1_backgroundBlur_19_528" result="shape"/>
</filter>
<filter id="filter8_b_19_528" x="1159.44" y="400.811" width="84.7449" height="84.7449" filterUnits="userSpaceOnUse" color-interpolation-filters="sRGB">
<feFlood flood-opacity="0" result="BackgroundImageFix"/>
<feGaussianBlur in="BackgroundImageFix" stdDeviation="5.77806"/>
<feComposite in2="SourceAlpha" operator="in" result="effect1_backgroundBlur_19_528"/>
<feBlend mode="normal" in="SourceGraphic" in2="effect1_backgroundBlur_19_528" result="shape"/>
</filter>
<linearGradient id="paint0_linear_19_528" x1="1114" y1="39" x2="1165.03" y2="162.977" gradientUnits="userSpaceOnUse">
<stop stop-color="white" stop-opacity="0.4"/>
<stop offset="1" stop-color="white" stop-opacity="0"/>
</linearGradient>
<linearGradient id="paint1_linear_19_528" x1="475" y1="39" x2="513.927" y2="174.289" gradientUnits="userSpaceOnUse">
<stop stop-color="white" stop-opacity="0.4"/>
<stop offset="1" stop-color="white" stop-opacity="0"/>
</linearGradient>
<linearGradient id="paint2_linear_19_528" x1="666" y1="39" x2="694.285" y2="178.503" gradientUnits="userSpaceOnUse">
<stop stop-color="white" stop-opacity="0.4"/>
<stop offset="1" stop-color="white" stop-opacity="0"/>
</linearGradient>
<linearGradient id="paint3_linear_19_528" x1="36" y1="39" x2="99.3693" y2="269.232" gradientUnits="userSpaceOnUse">
<stop stop-color="white" stop-opacity="0.4"/>
<stop offset="1" stop-color="white" stop-opacity="0"/>
</linearGradient>
<linearGradient id="paint4_linear_19_528" x1="1201.82" y1="172" x2="1201.82" y2="233.633" gradientUnits="userSpaceOnUse">
<stop stop-color="white"/>
<stop offset="1" stop-color="#D9D9D9" stop-opacity="0"/>
</linearGradient>
<linearGradient id="paint5_linear_19_528" x1="1201.82" y1="252.122" x2="1201.82" y2="313.755" gradientUnits="userSpaceOnUse">
<stop stop-color="white"/>
<stop offset="1" stop-color="#D9D9D9" stop-opacity="0"/>
</linearGradient>
<linearGradient id="paint6_linear_19_528" x1="1201.82" y1="332.245" x2="1201.82" y2="393.878" gradientUnits="userSpaceOnUse">
<stop stop-color="white"/>
<stop offset="1" stop-color="#D9D9D9" stop-opacity="0"/>
</linearGradient>
<linearGradient id="paint7_linear_19_528" x1="1201.82" y1="412.367" x2="1201.82" y2="474" gradientUnits="userSpaceOnUse">
<stop stop-color="white"/>
<stop offset="1" stop-color="#D9D9D9" stop-opacity="0"/>
</linearGradient>
<clipPath id="clip0_19_528">
<rect width="9.47368" height="12.3158" fill="white" transform="matrix(0 -1 1 0 174.573 165.521)"/>
</clipPath>
</defs>
</svg>
